<?xml version="1.0" encoding="iso-8859-1"?>
<!-- Generator: Adobe Illustrator 19.0.0, SVG Export Plug-In . SVG Version: 6.00 Build 0)  -->
<svg version="1.1" id="Capa_1" xmlns="http://www.w3.org/2000/svg" xmlns:xlink="http://www.w3.org/1999/xlink" x="0px" y="0px"
	 viewBox="0 0 512 512" style="enable-background:new 0 0 512 512;" xml:space="preserve">
<linearGradient id="SVGID_1_" gradientUnits="userSpaceOnUse" x1="-44.5713" y1="615.9688" x2="11.1138" y2="615.9688" gradientTransform="matrix(10.6667 0 0 -10.6667 473.6667 6826.3335)">
	<stop  offset="0" style="stop-color:#E93E3A"/>
	<stop  offset="0.359" style="stop-color:#ED683C"/>
	<stop  offset="0.702" style="stop-color:#F3903F"/>
	<stop  offset="1" style="stop-color:#FDC70C"/>
</linearGradient>
<path style="fill:url(#SVGID_1_);" d="M256,0C114.615,0,0,114.615,0,256s114.615,256,256,256s256-114.615,256-256
	C511.835,114.683,397.317,0.165,256,0z M256,490.667C126.397,490.667,21.333,385.603,21.333,256S126.397,21.333,256,21.333
	S490.667,126.397,490.667,256C490.52,385.542,385.542,490.52,256,490.667z"/>
<g>
	
		<linearGradient id="SVGID_2_" gradientUnits="userSpaceOnUse" x1="-44.5713" y1="618.4662" x2="11.1138" y2="618.4662" gradientTransform="matrix(10.6667 0 0 -10.6667 473.6667 6826.3335)">
		<stop  offset="0" style="stop-color:#E93E3A"/>
		<stop  offset="0.359" style="stop-color:#ED683C"/>
		<stop  offset="0.702" style="stop-color:#F3903F"/>
		<stop  offset="1" style="stop-color:#FDC70C"/>
	</linearGradient>
	<path style="fill:url(#SVGID_2_);" d="M180.363,330.667L167.157,192h5.141l19.851,119.083c0.855,5.143,5.303,8.915,10.517,8.917
		h170.667c5.214-0.002,9.662-3.774,10.517-8.917L403.701,192H416v-21.333H165.131L160,116.32c-0.55-5.471-5.168-9.628-10.667-9.6
		h-42.667v21.333h32.971L160,342.4c0.55,5.471,5.168,9.628,10.667,9.6h256v-21.333H180.363z M364.299,298.667H211.701L193.92,192
		h188.16L364.299,298.667z"/>
	
		<linearGradient id="SVGID_3_" gradientUnits="userSpaceOnUse" x1="-44.5713" y1="603.9688" x2="11.1138" y2="603.9688" gradientTransform="matrix(10.6667 0 0 -10.6667 473.6667 6826.3335)">
		<stop  offset="0" style="stop-color:#E93E3A"/>
		<stop  offset="0.359" style="stop-color:#ED683C"/>
		<stop  offset="0.702" style="stop-color:#F3903F"/>
		<stop  offset="1" style="stop-color:#FDC70C"/>
	</linearGradient>
	<path style="fill:url(#SVGID_3_);" d="M181.333,384c0,17.673,14.327,32,32,32s32-14.327,32-32s-14.327-32-32-32
		S181.333,366.327,181.333,384z M213.333,373.333c5.891,0,10.667,4.776,10.667,10.667c0,5.891-4.776,10.667-10.667,10.667
		c-5.891,0-10.667-4.776-10.667-10.667C202.667,378.109,207.442,373.333,213.333,373.333z"/>
	
		<linearGradient id="SVGID_4_" gradientUnits="userSpaceOnUse" x1="-44.5713" y1="603.9688" x2="11.1138" y2="603.9688" gradientTransform="matrix(10.6667 0 0 -10.6667 473.6667 6826.3335)">
		<stop  offset="0" style="stop-color:#E93E3A"/>
		<stop  offset="0.359" style="stop-color:#ED683C"/>
		<stop  offset="0.702" style="stop-color:#F3903F"/>
		<stop  offset="1" style="stop-color:#FDC70C"/>
	</linearGradient>
	<path style="fill:url(#SVGID_4_);" d="M341.333,384c0,17.673,14.327,32,32,32s32-14.327,32-32s-14.327-32-32-32
		S341.333,366.327,341.333,384z M373.333,373.333c5.891,0,10.667,4.776,10.667,10.667c0,5.891-4.776,10.667-10.667,10.667
		s-10.667-4.776-10.667-10.667C362.667,378.109,367.442,373.333,373.333,373.333z"/>
	
		<linearGradient id="SVGID_5_" gradientUnits="userSpaceOnUse" x1="-44.5713" y1="617.9688" x2="11.1138" y2="617.9688" gradientTransform="matrix(10.6667 0 0 -10.6667 473.6667 6826.3335)">
		<stop  offset="0" style="stop-color:#E93E3A"/>
		<stop  offset="0.359" style="stop-color:#ED683C"/>
		<stop  offset="0.702" style="stop-color:#F3903F"/>
		<stop  offset="1" style="stop-color:#FDC70C"/>
	</linearGradient>
	<path style="fill:url(#SVGID_5_);" d="M234.667,224H256v21.333h-21.333V224z"/>
	
		<linearGradient id="SVGID_6_" gradientUnits="userSpaceOnUse" x1="-44.5713" y1="617.9688" x2="11.1138" y2="617.9688" gradientTransform="matrix(10.6667 0 0 -10.6667 473.6667 6826.3335)">
		<stop  offset="0" style="stop-color:#E93E3A"/>
		<stop  offset="0.359" style="stop-color:#ED683C"/>
		<stop  offset="0.702" style="stop-color:#F3903F"/>
		<stop  offset="1" style="stop-color:#FDC70C"/>
	</linearGradient>
	<path style="fill:url(#SVGID_6_);" d="M277.333,224h21.333v21.333h-21.333V224z"/>
	
		<linearGradient id="SVGID_7_" gradientUnits="userSpaceOnUse" x1="-44.5713" y1="617.9688" x2="11.1138" y2="617.9688" gradientTransform="matrix(10.6667 0 0 -10.6667 473.6667 6826.3335)">
		<stop  offset="0" style="stop-color:#E93E3A"/>
		<stop  offset="0.359" style="stop-color:#ED683C"/>
		<stop  offset="0.702" style="stop-color:#F3903F"/>
		<stop  offset="1" style="stop-color:#FDC70C"/>
	</linearGradient>
	<path style="fill:url(#SVGID_7_);" d="M320,224h21.333v21.333H320V224z"/>
</g>
<g>
</g>
<g>
</g>
<g>
</g>
<g>
</g>
<g>
</g>
<g>
</g>
<g>
</g>
<g>
</g>
<g>
</g>
<g>
</g>
<g>
</g>
<g>
</g>
<g>
</g>
<g>
</g>
<g>
</g>
</svg>
